<svg width="30" height="31" viewBox="0 0 30 31" fill="none" xmlns="http://www.w3.org/2000/svg">
<path fill-rule="evenodd" clip-rule="evenodd" d="M13.5625 23.25H15.5V25.1875H13.5625V23.25ZM13.5625 27.125H15.5C16.5695 27.125 17.4375 26.257 17.4375 25.1875V23.25C17.4375 22.1805 16.5695 21.3125 15.5 21.3125H13.5625C12.493 21.3125 11.625 22.1805 11.625 23.25V25.1875C11.625 26.257 12.493 27.125 13.5625 27.125ZM5.8125 23.25H7.75V25.1875H5.8125V23.25ZM5.8125 27.125H7.75C8.8195 27.125 9.6875 26.257 9.6875 25.1875V23.25C9.6875 22.1805 8.8195 21.3125 7.75 21.3125H5.8125C4.743 21.3125 3.875 22.1805 3.875 23.25V25.1875C3.875 26.257 4.743 27.125 5.8125 27.125ZM13.5625 15.5H15.5V17.4375H13.5625V15.5ZM13.5625 19.375H15.5C16.5695 19.375 17.4375 18.507 17.4375 17.4375V15.5C17.4375 14.4305 16.5695 13.5625 15.5 13.5625H13.5625C12.493 13.5625 11.625 14.4305 11.625 15.5V17.4375C11.625 18.507 12.493 19.375 13.5625 19.375ZM5.8125 15.5H7.75V17.4375H5.8125V15.5ZM5.8125 19.375H7.75C8.8195 19.375 9.6875 18.507 9.6875 17.4375V15.5C9.6875 14.4305 8.8195 13.5625 7.75 13.5625H5.8125C4.743 13.5625 3.875 14.4305 3.875 15.5V17.4375C3.875 18.507 4.743 19.375 5.8125 19.375ZM27.125 7.75H1.9375V5.8125C1.9375 4.743 2.8055 3.875 3.875 3.875H7.75V4.84375C7.75 5.37947 8.18303 5.8125 8.71875 5.8125C9.25447 5.8125 9.6875 5.37947 9.6875 4.84375V3.875H19.375V4.84375C19.375 5.37947 19.808 5.8125 20.3438 5.8125C20.8795 5.8125 21.3125 5.37947 21.3125 4.84375V3.875H25.1875C26.257 3.875 27.125 4.743 27.125 5.8125V7.75ZM27.125 27.125C27.125 28.1945 26.257 29.0625 25.1875 29.0625H3.875C2.8055 29.0625 1.9375 28.1945 1.9375 27.125V9.6875H27.125V27.125ZM25.1875 1.9375H21.3125V0.96875C21.3125 0.434 20.8795 0 20.3438 0C19.808 0 19.375 0.434 19.375 0.96875V1.9375H9.6875V0.96875C9.6875 0.434 9.25447 0 8.71875 0C8.18303 0 7.75 0.434 7.75 0.96875V1.9375H3.875C1.73503 1.9375 0 3.67253 0 5.8125V27.125C0 29.265 1.73503 31 3.875 31H25.1875C27.3275 31 29.0625 29.265 29.0625 27.125V5.8125C29.0625 3.67253 27.3275 1.9375 25.1875 1.9375ZM21.3125 15.5H23.25V17.4375H21.3125V15.5ZM21.3125 19.375H23.25C24.3195 19.375 25.1875 18.507 25.1875 17.4375V15.5C25.1875 14.4305 24.3195 13.5625 23.25 13.5625H21.3125C20.243 13.5625 19.375 14.4305 19.375 15.5V17.4375C19.375 18.507 20.243 19.375 21.3125 19.375ZM21.3125 23.25H23.25V25.1875H21.3125V23.25ZM21.3125 27.125H23.25C24.3195 27.125 25.1875 26.257 25.1875 25.1875V23.25C25.1875 22.1805 24.3195 21.3125 23.25 21.3125H21.3125C20.243 21.3125 19.375 22.1805 19.375 23.25V25.1875C19.375 26.257 20.243 27.125 21.3125 27.125Z" fill="#555555"/>
</svg>
