<svg width="22" height="19" viewBox="0 0 22 19" fill="none" xmlns="http://www.w3.org/2000/svg">
<path d="M16 5C12.5705 5 9.6449 7.15804 8.50734 10.1903L10.3805 10.8927C11.2337 8.6185 13.4278 7 16 7C16.6983 7 17.3687 7.11928 17.992 7.33857C20.3265 8.16 22 10.3846 22 13C22 16.3137 19.3137 19 16 19H6C2.68629 19 0 16.3137 0 13C0 10.3846 1.67346 8.16 4.00804 7.33857C4.0027 7.22639 4 7.11351 4 7C4 3.13401 7.13401 0 11 0C14.242 0 16.9693 2.20399 17.7652 5.19539C17.1973 5.0675 16.6065 5 16 5Z" fill="#F6F9F2"/>
</svg>
