<svg width="18" height="18" viewBox="0 0 18 18" fill="none" xmlns="http://www.w3.org/2000/svg">
<path d="M5.20434 10.5246C5.0304 10.9923 4.88274 11.4249 4.75066 11.8617C5.47009 11.3392 6.32658 11.0076 7.31395 10.8841C9.1989 10.6485 10.8732 9.40392 11.7209 7.84032L10.6291 6.7492L11.6886 5.68817C11.9389 5.43757 12.1891 5.18715 12.4394 4.9369C12.7613 4.61488 13.125 4.01891 13.5097 3.16122C9.31477 3.81141 6.74613 6.37989 5.20434 10.5246ZM12.75 6.74808L13.5 7.49756C12.75 9.74757 10.5 11.9976 7.5 12.3726C5.49859 12.6228 4.24816 13.9977 3.74868 16.4976H2.25C3 11.9976 4.5 1.49756 15.75 1.49756C15.0007 3.74556 14.2514 5.24489 13.502 5.99556C13.2497 6.24791 12.9998 6.49791 12.75 6.74808Z" fill="#1C5B7C"/>
</svg>
