<svg width="29" height="29" viewBox="0 0 29 29" fill="none" xmlns="http://www.w3.org/2000/svg">
<path d="M20.2814 13.9923L19.8551 14.4847L20.4409 14.7693C25.311 17.1354 28.5 22.2197 28.5 27.9259C28.5 28.261 28.2439 28.5 27.9643 28.5H1.03571C0.756806 28.5 0.5 28.2607 0.5 27.9259C0.5 23.7151 2.25605 19.718 5.31287 16.9558C5.53289 16.7573 5.86179 16.7789 6.05602 17.0104L6.05607 17.0104C6.26083 17.2544 6.23354 17.6257 6.00353 17.8333L6.00323 17.8336C3.45695 20.1359 1.89477 23.3593 1.61654 26.8117L1.57301 27.3519H2.11493H26.8861H27.4276L27.3845 26.8121C26.9753 21.684 23.757 17.2377 19.0661 15.4048L18.827 15.3113L18.6117 15.4513C17.4136 16.2301 16.0077 16.6852 14.5 16.6852C10.2246 16.6852 6.71429 13.0715 6.71429 8.59259C6.71429 4.1137 10.2246 0.5 14.5 0.5C18.7754 0.5 22.2857 4.1137 22.2857 8.59259C22.2857 10.6689 21.523 12.5579 20.2814 13.9923ZM14.5 1.64815C10.7797 1.64815 7.78571 4.77963 7.78571 8.59259C7.78571 12.4056 10.7797 15.537 14.5 15.537C18.2203 15.537 21.2143 12.4056 21.2143 8.59259C21.2143 4.77963 18.2203 1.64815 14.5 1.64815Z" fill="#555555" stroke="#555555"/>
</svg>
