<svg width="31" height="25" viewBox="0 0 31 25" fill="none" xmlns="http://www.w3.org/2000/svg">
<path d="M27.5255 13.5712L27.6985 13.725L27.918 13.6516L29.3304 13.1795L30.4873 15.1596L29.3744 16.1261L29.1962 16.2808L29.2454 16.5116C29.3236 16.8776 29.3646 17.2573 29.3646 17.6471C29.3646 18.0368 29.3236 18.4165 29.2454 18.7826L29.1962 19.0133L29.3744 19.168L30.4873 20.1346L29.3304 22.1147L27.918 21.6425L27.6985 21.5692L27.5255 21.7229C26.9555 22.2295 26.279 22.6211 25.5333 22.861L25.3102 22.9327L25.2637 23.1624L24.9728 24.6H22.6506L22.3597 23.1624L22.3132 22.9327L22.0901 22.861C21.3444 22.6211 20.6679 22.2295 20.0979 21.7229L19.9249 21.5692L19.7054 21.6425L18.293 22.1147L17.1361 20.1346L18.249 19.168L18.4272 19.0133L18.378 18.7826C18.2998 18.4165 18.2588 18.0368 18.2588 17.6471C18.2588 17.2573 18.2998 16.8776 18.378 16.5116L18.4272 16.2808L18.249 16.1261L17.1361 15.1596L18.293 13.1795L19.7054 13.6516L19.9249 13.725L20.0979 13.5712C20.6679 13.0646 21.3444 12.6731 22.0901 12.4331L22.3132 12.3614L22.3597 12.1317L22.6506 10.6941H24.9728L25.2637 12.1317L25.3102 12.3614L25.5333 12.4331C26.279 12.6731 26.9555 13.0646 27.5255 13.5712ZM0.4 20.9882H10.0176V23.1294H0.4V20.9882ZM0.4 10.6941H12.9941V12.8353H0.4V10.6941ZM0.4 0.4H29.3646V2.54118H0.4V0.4ZM23.8117 20.9882C25.672 20.9882 27.1882 19.4969 27.1882 17.6471C27.1882 15.7972 25.672 14.3059 23.8117 14.3059C21.9514 14.3059 20.4352 15.7972 20.4352 17.6471C20.4352 19.4969 21.9514 20.9882 23.8117 20.9882Z" fill="black" stroke="#AACFDD" stroke-width="0.8"/>
</svg>
